<svg width="1024" height="1024" viewBox="0 0 1024 1024" fill="none" xmlns="http://www.w3.org/2000/svg">
<path d="M920 512C920 737.332 737.332 920 512 920C286.668 920 104 737.332 104 512C104 286.668 286.668 104 512 104C737.332 104 920 286.668 920 512Z" fill="#36C9FA" stroke="black" stroke-width="30"/>
<path d="M920 512C920 737.332 737.332 920 512 920C286.668 920 104 737.332 104 512C104 286.668 286.668 104 512 104C737.332 104 920 286.668 920 512Z" fill="#36C9FA" stroke="black" stroke-width="30"/>
<circle cx="552" cy="512" r="349" fill="#26CCFC" stroke="black" stroke-width="20"/>
<circle cx="69" cy="163" r="62" fill="#D9D9D9"/>
<circle cx="52" cy="346" r="17" fill="#D9D9D9"/>
<circle cx="26.5" cy="492.5" r="22.5" fill="#D9D9D9"/>
<circle cx="49.5" cy="564.5" r="14.5" fill="#D9D9D9"/>
<circle cx="54.5" cy="681.5" r="19.5" fill="#D9D9D9"/>
<circle cx="943.5" cy="759.5" r="47.5" fill="#D9D9D9"/>
<circle cx="896" cy="143" r="20" fill="#D9D9D9"/>
<circle cx="723" cy="51" r="20" fill="#D9D9D9"/>
<circle cx="929.5" cy="243.5" r="18.5" fill="#D9D9D9"/>
<path d="M223.501 565.503L223.5 565.5L220.5 557.5L212.5 577L231 630L250 676.5L279 726.5L324 774L352.5 798L479.5 853L596.5 858L674.5 839L764 791L826 727L831 711.5C820.961 722.158 814.856 728.223 801.5 739.5C794.362 747.009 790.141 751.272 780 759.5C772.668 765.65 768.205 768.596 760 773.5C740.551 786.971 728.651 793.313 706.5 803.5C680.897 814.105 665.471 818.926 636.5 826C606.706 832.033 589.483 833.195 558 832C524.965 827.389 507.768 823.892 479.5 816C440.519 805.655 429.322 801.014 410 791C379.913 774.025 365.992 763.393 344 743C323.829 726.858 313.977 716.733 298 697.5C283.872 683.403 276.611 674.897 265 658.5C257.865 645.381 254.722 638.575 250 627C242.4 613.808 240.379 606.527 236 593.5C229.863 581.937 227.577 576.033 223.501 565.503Z" fill="#0580DE"/>
<circle cx="557" cy="512" r="349" stroke="black" stroke-width="20"/>
<circle cx="584" cy="486" r="297" fill="white" stroke="#282626" stroke-width="30"/>
<path d="M780 673L807 663L799 671.5L789 682.5L767 700.5L756.5 709L750 714L738.5 722L718.029 734.415L705.5 740.5L699 717L701.5 711L725.5 699.5L735 695.5L749 693.5L780 673Z" fill="#A1A4A3" fill-opacity="0.7"/>
<path d="M644.5 762.5L655.5 758.5H658.5L661 759V757L660.5 754L655.5 756.5L648 758H624.5L603 758.5L588 764H600.5L626 765L644.5 762.5Z" fill="#00243A"/>
<path d="M697.5 726L696 719H697L699 720.5L702.5 721L703 722L707.5 725H710.5L717 726.5L719 728.5L720.5 733L717 736.5L713.5 739.5H708.5L702.5 741L700 737L697.5 726Z" fill="#77777B" fill-opacity="0.6"/>
<path d="M753 689L756 684.5H759.5L767.5 682L772 678C775.667 678.833 782.9 680.6 782.5 681C782.1 681.4 783.833 683.333 785.5 685L780.5 689.5L772.5 695.5L765.5 702L755.5 710L756 703.5L752 698.5L749 696L752 694.5L753 689Z" fill="#C3C6C5" fill-opacity="0.3"/>
<path d="M734.5 699.5L739 700.5V698.5L739.5 696L743.5 696.5L745 700.5L749 704.5C748.844 706.673 747.969 708.018 749 710C749.69 711.323 750.431 711.81 752 712.5L746.5 716.5L738.5 722L733 725.5L730.5 721.5L729 716L729.5 706.5L730.5 704.5L734.5 702V699.5Z" fill="#7E8082" fill-opacity="0.8"/>
<path d="M453 719L460 718V720L458.5 723.5L453.5 724L452 722L453 720.5L448 719H453Z" fill="#BED0DB" stroke="black"/>
<path d="M646.5 580.5L641 572L638 570L636 571L639.5 578L642 585L644 595.5L653 604L666.5 611L669 609.5V607L665.5 604L660.5 600.5L657 593.5L654 589L649.5 585L646.5 580.5Z" fill="#E8F1F5"/>
<path d="M710 710L703 714L705 716H708.5L710 718L713.5 720H716L723.5 722L726 723.5V728.5L731 728L733.5 723.5V718V710V701L725 702.5L710 710Z" fill="#7D7E82" fill-opacity="0.7"/>
<path d="M502.5 501L506.5 497L513 487.5L518.5 483.5V480C518 477.667 517 472.7 517 471.5C517 470.3 519 463.667 520 460.5H535.5L545 466.5L550 474.5V482L545 487.5L541.5 489.5L539 493L543 504V511.5L556 513L559.5 508.5L567 505.5C570.5 508.5 577.7 514.5 578.5 514.5C579.3 514.5 580.5 519.5 581 522L567 527L565 531L561 534.5L559.5 539.5L564 543.5L571 548.5V557L564 567.5L552.5 568.5L543 568L533 569.5H518.5L514.5 567.5L506 561C505.5 559.833 504.5 557.4 504.5 557C504.5 556.6 504.833 552.833 505 551L507 547L509 543.5V539.5L508.5 538.5L507 532L506 527L499.5 522L497 518.5L491 517.5L489 514.5L492 511.5L495 508.5L498 505.5L502.5 501Z" fill="#C7D1D3"/>
<path d="M548 733.5H555L576.5 731.5L599 729.5H610.5L615.5 742L623 744C626.167 742.667 632.2 739.6 631 738C629.8 736.4 629.167 734.333 629 733.5L636.5 719.5L640.5 716L647 711L650.5 704.5H661.5H673L666.5 717.5L673 721.5L685.5 719.5L697 724.5L685.5 738L663.5 750L629 744L599 750L584.5 756L575 762.5H553L532.5 758L505.5 750L481 745L466 738L453.5 729.5L441.5 724.5L436 716L445 706.5L474.5 713.5H490.5L495 729.5L512.5 731.5L520 724.5L516.5 709V698L511.5 686L507 680L514.5 681L522 684.5L531 687H540L545 688.5L542.5 695.5L540 706.5L538.5 713.5L540 721.5L542.5 727.5L548 733.5Z" fill="#B0BBC3" fill-opacity="0.4"/>
<path d="M689 720.5L698 714L705.5 742L694.5 744.5L669 756L644.5 758H628L619.5 754L615 748L622.5 744.5L636 742L651.5 735L667 730.5L680 725.5L689 720.5Z" fill="#2E3237" fill-opacity="0.7"/>
<path d="M450.5 533C443.667 535.167 429.6 539.5 428 539.5L426 577L473 598.5L571 617L566.5 651.5V675L589 689.5L602.5 682L605.5 659H620L624 646.5L598.5 638L611 622L620 595L576 582.5L563.5 575L553 569.5L543.5 567L514 569.5L506.5 560.5L500.5 562L492.5 569.5L458.5 573L444 569.5L440.5 558L445.5 551L450.5 542V533Z" fill="#EAF1F3" fill-opacity="0.5"/>
<path d="M799.988 380C802.271 389.096 804.571 392.162 807.988 399L803.988 400C800.738 398.687 798.914 397.975 795.488 399L791.488 397L785.988 395.5V390.5L789.488 384.5L791.488 380C795.772 378.581 794.986 376.484 792.988 372.5L791.488 371L787.988 367C784.871 366.268 783.822 366.536 783.488 368.5C777.031 369.612 775.564 369.754 772.988 370V377L769.488 384.5L764.988 387H760.988L754.988 380L752.988 376L744.988 373.5L737.488 371L732.988 368.5C732.988 368.5 727.488 372.5 723.488 370C719.488 367.5 722.488 365 722.488 365C724.894 362.323 723.188 361.3 719.988 359.5C718.668 353.187 716.668 350.427 711.488 346.5C711.859 342.642 710.458 341.663 706.488 341C708.469 339.171 707.31 338.348 705.488 336.5C709.371 331.285 707.99 328.701 706.488 324C705.06 322.188 705.164 320.879 705.488 318.5C705.488 318.5 704.488 318.5 702.488 317C700.488 315.5 698.488 313.5 698.488 313.5L696.488 311H692.488L689.988 317H682.988L676.488 322L676.988 326.5L682.988 329L686.488 334L690.988 337.5L693.488 342.5L697.488 348.5V356L694.488 361L682.988 368.5L678.988 371V377L682.988 380L684.488 390.5L688.988 401.5L697.488 411.5L701.488 413.5L705.488 417.5L708.988 415L720.988 413.5L732.988 411.5C737.669 408.71 740.443 407.461 745.988 406.5L752.988 407.5L763.488 413.5L769.488 417.5L777.988 420L785.988 422.5L789.488 424V429.5L781.988 436.5L772.988 443.5L766.988 446C766.323 451.447 766.346 454.436 767.988 459.5C767.389 464.9 767.171 467.749 767.988 471L759.988 475.5L757.988 467.5C758.066 463.61 757.338 461.902 754.988 459.5C753.874 455.532 752.004 455.069 748.488 454.5C741.39 455.216 737.821 454.874 732.988 451.5L729.488 448V429.5L730.988 426L729.488 424L727.488 422.5L723.488 426L716.988 431.5L705.488 436.5L702.488 443.5L694.488 448L688.988 446L684.488 431.5L681.988 422.5L676.488 415L674.988 417.5L667.988 422.5L658.488 427.5L645.488 431.5L637.488 429.5L623.488 424C619.988 422.167 612.888 418.3 612.488 417.5C612.088 416.7 600.988 406.5 595.488 401.5L590.488 400V393.5L593.488 382.5L599.488 373.5L601.488 368.5V365L599.488 361L597.988 358H595.488L593.488 359.5L590.488 366L585.988 377L579.488 385.5L570.488 393.5L563.488 399L557.488 403L552.488 404V406.5H557.488L573.988 407.5L579.488 415L580.988 424L585.988 429.5L587.988 443.5V454.5L579.488 456.5L570.488 459.5L558.488 464L549.988 471L545.988 479L540.988 489.5V506.5L549.988 514L564.988 512.5L572.988 505L587.988 498L593.488 503L595.488 520.5L587.988 524.5L579.488 530L568.988 524.5L562.488 530L557.488 537.5L559.488 545.5L568.988 548.5V555L562.488 564.5L549.988 567.5L540.988 564.5L532.488 567.5H522.488L511.488 564.5L506.988 552L511.488 545.5L525.488 544L540.988 552L527.988 535.5L525.488 520.5L522.488 506.5L515.488 503L509.488 500V491L527.988 464H535.488V455.5C530.428 453.861 527.786 452.66 525.488 447C527.011 444.637 527.062 443.118 525.488 440C530.465 436.345 532.544 435.296 535.488 434.5V427.5C535.785 426.155 536.671 425.405 525.488 424C523.747 422.319 522.765 419.845 525.488 415L517.988 410C517.243 404.575 514.022 402.425 506.988 399C500.248 395.869 497.785 391.294 492.988 384L487.488 358V348.5L506.988 335.5L515.488 331L517.988 319.5V308.5H522.488L532.488 313.5L540.988 319.5H549.988L568.988 317L576.988 322L590.488 331L595.488 335.5L606.488 331H615.988L622.488 326.5V319.5L615.988 313.5L611.488 306L615.988 297.5H629.988L634.488 306L645.488 317H654.488L665.488 308.5L676.988 306C676.988 306 688.988 303.5 694.488 306C699.988 308.5 707.687 305.128 713.488 306C719.288 306.872 724.065 303.753 728.488 302C734.257 301.122 736.644 300.047 739.988 297.5C742.767 293.997 743.878 291.596 743.488 285C748.066 287.734 748.771 286.771 749.988 285C757.754 284.579 759.389 285.673 759.488 289C757.462 294.077 755.9 296.923 759.488 302C760.456 305.347 760.047 307.58 767.488 308.5C768.393 312.44 769.244 313.996 772.488 313.5C768.714 316.434 767.052 317.932 767.488 319.5C769.13 324.609 770.074 327.426 772.488 331C788.982 353.136 795.6 356.408 812.488 369C800.129 373.077 795.096 378.49 799.988 380Z" fill="#15181A"/>
<path d="M676.488 282L688.988 285H692.488L702.488 282L706.488 275.5L708.988 271V262.5L705.488 255.5L698.488 249L686.488 239L678.988 236H656.488L648.488 239L645.488 242L638.488 250.5V262.5L643.988 271L649.988 277L665.488 282H676.488Z" fill="#15181A"/>
<path d="M544.988 301.5H535.488H532.488H529.488L525.488 296.5L522.488 293L523.988 288.5L526.488 285L530.988 282.5L542.988 282L553.488 282.5L555.488 285V293L551.988 296.5L549.988 301.5H544.988Z" fill="#15181A"/>
<path d="M502.988 304.5L515.488 303L517.988 304.5L515.488 311L512.488 317L506.988 319.5L499.488 322L489.488 318.5V313.5L486.488 303V296.5L492.988 300L495.488 304.5H502.988Z" fill="#15181A"/>
<path d="M442.988 317H452.488L454.988 318.5L452.488 322V329L447.988 334L442.988 335.5L438.488 334L427.488 329L413.488 331L405.488 334L387.988 344.5L376.488 354L363.988 368.5L353.488 377L344.988 397L342.988 411.5L357.988 403L363.988 397L368.488 387.5L376.488 377L380.988 366L399.988 354L405.488 350.5C406.988 349.833 410.688 348.1 413.488 346.5C416.988 344.5 422.488 346.5 424.488 344.5C426.088 342.9 433.154 342.5 436.488 342.5L446.488 341.5L452.488 336.5L457.988 329V318.5L463.988 311C466.654 308.833 472.088 304.2 472.488 303C472.988 301.5 476.988 291 479.988 277C482.388 265.8 480.988 266.333 479.988 268C474.488 270.5 463.188 275.5 461.988 275.5C460.788 275.5 456.821 279.833 454.988 282L447.988 291L438.488 300L431.988 310L432.988 317H442.988Z" fill="#15181A"/>
<path d="M730.988 524.5C730.988 522.9 735.321 515.833 737.488 512.5L744.988 506.5H736.488L719.988 510.5L723.488 500L742.988 491L753.988 488C760.321 493 772.888 503 772.488 503C771.988 503 764.988 506.5 752.988 510.5C740.988 514.5 745.988 530 748.488 532.5C750.488 534.5 752.321 539 752.988 541C754.654 552.667 757.988 576.5 757.988 578.5C757.988 580.5 744.321 587.333 737.488 590.5L729.488 582.5L737.488 564.5C737.488 560.333 737.288 551.6 736.488 550C735.688 548.4 733.821 539.667 732.988 535.5C732.321 532.5 730.988 526.1 730.988 524.5Z" fill="#15181A"/>
<path d="M852.488 524.5L855.988 510.5L858.988 514L855.988 537.5V564.5L840.988 595L833.988 612L820.488 614.5H812.488L825.488 595L836.488 573L844.488 550L852.488 537.5V524.5Z" fill="#15181A"/>
<path d="M785.988 567.5L799.988 550L803.988 573L799.988 582.5L787.988 595H781.988L772.488 588L772.988 578.5L785.988 567.5Z" fill="#15181A"/>
<path d="M633.988 567.5L627.488 564.5V567.5V572L623.488 588V582.5L609.988 572L595.488 567.5H593.488C588.821 568.667 579.188 571.2 577.988 572C576.788 572.8 569.821 576.333 566.488 578L572.988 582.5L579.488 588L593.488 590.5L601.988 595L609.988 602.5L607.988 612L601.988 614.5L593.488 628.5V639L597.988 648H607.988H616.988V653.5L614.488 662.5L627.488 660.5L643.488 662.5L662.488 655.5L669.988 650C672.154 647.333 676.988 641.4 678.988 639C681.488 636 678.988 628 678.988 626C678.988 624.4 680.988 617.667 681.988 614.5H676.488L662.488 608.5L649.988 600L643.488 595L640.488 588V576L633.988 567.5Z" fill="#15181A"/>
<path d="M487.488 417.5C489.821 416.667 494.688 415 495.488 415L496.488 417.5V425L493.988 430.5L487.488 433L481.988 431.5L475.988 427.5L476.988 423L487.488 417.5Z" fill="#15181A"/>
<path d="M390.488 374L395.988 377.5L398.488 378.5L397.488 382L394.988 386L391.988 389.5L385.488 391.5L382.488 387.5V384.5C383.154 382.667 384.588 378.9 384.988 378.5L387.488 376L390.488 374Z" fill="#15181A"/>
<path d="M461.488 386C459.321 386.5 454.788 387.5 453.988 387.5H451.488L449.488 395.5V404L446.488 410L441.488 415V417.5L442.988 420.5C443.388 421.3 444.821 420.833 445.488 420.5L446.488 417.5V415H447.988L449.488 417.5L453.988 420.5L456.988 424L457.988 448V458.5L461.988 461L466.488 464L471.988 466.5L478.488 463L485.988 459.5L493.988 453.5L495.488 451.5L498.988 450.5V455.5L500.988 457.5L500.488 481L495.488 492L492.988 506.5L483.988 515.5L474.488 523.5L463.488 535L438.488 546L435.988 561L437.488 569L440.988 573L444.488 578L451.988 580.5L455.488 583.5H460.488L466.488 587H533.488L542.488 589.5L547.988 595L548.988 602.5L551.988 606.5L558.988 607.5L570.988 605L587.488 606.5L596.988 611.5L593.988 617L581.488 629L575.488 639L574.488 645.5L576.488 650C577.488 651.833 579.688 655.6 580.488 656C581.288 656.4 581.821 657.167 581.988 657.5V665C581.988 665.8 580.988 666.333 580.488 666.5L575.488 668.5H573.488L570.988 665L568.988 664C568.654 664.833 567.988 666.6 567.988 667C567.988 667.4 568.321 668.833 568.488 669.5L573.488 673.5L579.488 682L582.988 684L587.488 686L595.488 685.5L602.488 681L605.988 674.5L603.988 669.5L602.488 663.5L600.988 658.5H604.988L610.488 661.5L611.988 665L616.488 666.5L618.988 668.5L629.988 669.5L640.988 672.5L655.988 672H666.988L669.988 678.5L659.488 690.5L651.988 697L642.488 708L633.488 705L629.988 695.5L627.988 687L627.488 681L618.988 678.5L610.488 681L609.488 692.5L613.488 700L616.988 713.5L607.988 724.5L602.488 726L563.488 724.5L551.488 721.5L541.988 710.5L543.488 706.5L547.988 701.5L549.488 698L551.488 695V690.5L549.488 687L540.988 683.5H522.488L515.488 679.5L502.988 677.5L511.488 689C512.821 694.833 515.488 706.9 515.488 708.5C515.488 710.1 517.821 720.833 518.988 726H502.988L491.488 717L476.488 710.5L461.488 717L442.488 719.5L405.988 695L402.488 683.5L390.988 677.5C388.488 673.167 381.388 663.1 372.988 657.5C362.488 650.5 356.488 643 350.488 636.5C345.688 631.3 326.821 598.333 317.988 582.5L311.988 555C310.488 548.5 308.388 526.9 311.988 492.5C315.588 458.1 324.488 442.5 328.488 439V475V488L334.988 500C336.321 502.167 339.188 506.5 339.988 506.5C340.988 506.5 343.488 511 343.988 511.5C344.388 511.9 345.154 515 345.488 516.5H354.488H357.988L359.988 511.5L357.988 501.5C357.488 497.333 356.488 488.8 356.488 488V480.5V476.5L354.488 473.5L350.488 469V461V454L353.488 447.5V441L361.988 439L364.988 435V410.5H367.988L369.988 405.5L377.988 404L383.488 403L385.488 400L387.988 403L383.488 407.5L382.488 411.5L387.488 413C388.654 411.833 391.188 409.4 391.988 409C392.788 408.6 395.988 407.167 397.488 406.5V401L400.488 396.5L402.988 390.5L406.488 384.5L410.488 382L420.488 379.5L453.988 378.904L465.988 379.5L472.988 380.5L483.988 385.5L491.488 387.5V395.5L488.988 400H483.988L475.988 393.5L467.488 391.5L461.488 386Z" fill="#15181A"/>
<path d="M152 551C144.537 506.572 136.625 490.524 121 465.5L114 489.5L110 571.5L149 687L186 759.5L306.5 863L408.5 906.5L554 923L681 887.5L801 816L840 764.5L827.5 743.5L801 769L776.5 796.5C764.153 808.049 756.415 814.079 742 824.5C726.153 834.434 715.716 839.365 695.5 847.5C670.582 858.414 654.732 863.569 624 871.5C602.625 875.826 589.612 877.137 565.5 878.5C532.949 878.599 514.266 877.19 480 871.5C449.808 864.014 432.658 858.911 401.5 847.5C374.913 837.154 360.003 831.776 333.5 812C313.419 792.919 303.021 782.547 272.5 759.5C259.673 748.144 251.856 739.907 236.5 721C210.89 696.474 199.573 678.042 185 636.5C169.404 604.888 162.262 586.112 152 551Z" fill="#117BC8"/>
<path d="M920 512C920 737.332 737.332 920 512 920C286.668 920 104 737.332 104 512C104 286.668 286.668 104 512 104C737.332 104 920 286.668 920 512Z" stroke="black" stroke-width="30"/>
<path d="M809 649L829 606.5V617.5L837 611L840 579V551.5L832 531.5L814 528.5L783 572.5L758 620L711.5 654.5L655.5 672L647 701.5L681.5 726L738.5 717.5L787 676.5L809 649Z" fill="white" fill-opacity="0.7"/>
</svg>
