<svg width="2981" height="1024" viewBox="0 0 2981 1024" fill="none" xmlns="http://www.w3.org/2000/svg">
<path d="M750.374 510.64C750.374 634.289 650.137 734.526 526.489 734.526C402.84 734.526 302.604 634.289 302.604 510.64C302.604 386.992 402.84 286.755 526.489 286.755C650.137 286.755 750.374 386.992 750.374 510.64Z" fill="#36C9FA" stroke="black" stroke-width="30"/>
<path d="M750.374 510.64C750.374 634.289 650.137 734.526 526.489 734.526C402.84 734.526 302.604 634.289 302.604 510.64C302.604 386.992 402.84 286.755 526.489 286.755C650.137 286.755 750.374 386.992 750.374 510.64Z" fill="#36C9FA" stroke="black" stroke-width="30"/>
<circle cx="549.079" cy="510.64" r="192.742" fill="#26CCFC" stroke="black" stroke-width="20"/>
<circle cx="265.014" cy="313.546" r="35.0139" fill="#D9D9D9"/>
<circle cx="266.708" cy="416.893" r="9.6006" fill="#D9D9D9"/>
<circle cx="252.307" cy="499.628" r="12.7067" fill="#D9D9D9"/>
<circle cx="265.296" cy="540.289" r="8.18874" fill="#D9D9D9"/>
<circle cx="268.12" cy="606.364" r="11.0124" fill="#D9D9D9"/>
<circle cx="770.175" cy="650.414" r="26.8252" fill="#D9D9D9"/>
<circle cx="743.349" cy="302.251" r="11.2948" fill="#D9D9D9"/>
<circle cx="645.649" cy="250.295" r="11.2948" fill="#D9D9D9"/>
<circle cx="762.268" cy="359.007" r="10.4477" fill="#D9D9D9"/>
<path d="M363.562 540.856L363.561 540.854L361.867 536.336L357.349 547.349L367.796 577.28L378.526 603.54L394.904 631.777L420.317 658.603L436.412 672.156L508.134 703.217L574.209 706.041L618.259 695.311L668.803 668.203L703.817 632.06L706.641 623.306C700.971 629.325 697.524 632.75 689.981 639.119C685.95 643.36 683.566 645.767 677.839 650.414C673.698 653.887 671.178 655.551 666.544 658.32C655.56 665.928 648.84 669.51 636.331 675.262C621.872 681.251 613.16 683.974 596.799 687.969C579.973 691.376 570.246 692.033 552.467 691.358C533.811 688.753 524.098 686.779 508.134 682.322C486.12 676.479 479.797 673.858 468.885 668.203C451.894 658.617 444.032 652.612 431.612 641.096C420.22 631.979 414.657 626.262 405.634 615.4C397.656 607.439 393.554 602.635 386.998 593.375C382.968 585.966 381.193 582.122 378.526 575.586C374.235 568.136 373.093 564.024 370.62 556.667C367.154 550.137 365.863 546.803 363.562 540.856Z" fill="#0580DE"/>
<circle cx="551.902" cy="510.64" r="192.742" stroke="black" stroke-width="20"/>
<circle cx="567.15" cy="495.957" r="166.199" fill="white" stroke="#282626" stroke-width="20"/>
<path d="M673.744 600.647L688.992 595L684.474 599.8L678.827 606.012L666.402 616.178L660.473 620.978L656.802 623.802L650.307 628.32L638.746 635.331L631.671 638.767L628 625.496L629.412 622.108L642.966 615.613L648.331 613.354L656.237 612.225L673.744 600.647Z" fill="#A1A4A3" fill-opacity="0.7"/>
<path d="M601.317 652.108L607.529 649.849H609.223L610.635 650.131V649.002L610.353 647.308L607.529 648.72L603.294 649.567H590.022L577.88 649.849L569.409 652.955H576.468L590.869 653.52L601.317 652.108Z" fill="#00243A"/>
<path d="M626.847 628.953L626 625H626.565L627.694 625.847L629.671 626.129L629.953 626.694L632.495 628.388H634.189L637.86 629.236L638.989 630.365L639.836 632.906L637.86 634.883L635.883 636.577H633.059L629.671 637.424L628.259 635.165L626.847 628.953Z" fill="#77777B" fill-opacity="0.6"/>
<path d="M659.259 609.212L660.953 606.671H662.93L667.448 605.259L669.989 603C672.06 603.471 676.145 604.468 675.919 604.694C675.693 604.92 676.672 606.012 677.613 606.953L674.789 609.495L670.271 612.883L666.318 616.554L660.671 621.072L660.953 617.401L658.694 614.577L657 613.165L658.694 612.318L659.259 609.212Z" fill="#C3C6C5" fill-opacity="0.3"/>
<path d="M650.106 614.977L652.647 615.541V614.412L652.93 613L655.189 613.282L656.036 615.541L658.295 617.8C658.207 619.027 657.713 619.787 658.295 620.906C658.685 621.653 659.103 621.929 659.989 622.318L656.883 624.577L652.365 627.683L649.259 629.66L647.847 627.401L647 624.295L647.282 618.93L647.847 617.8L650.106 616.388V614.977Z" fill="#7E8082" fill-opacity="0.8"/>
<path d="M493.169 627.542L497.123 626.977V628.107L496.275 630.083L493.452 630.365L492.605 629.236L493.169 628.389L490.346 627.542H493.169Z" fill="#BED0DB" stroke="black"/>
<path d="M602.446 549.325L599.34 544.525L597.646 543.395L596.517 543.96L598.493 547.913L599.905 551.867L601.035 557.796L606.117 562.597L613.741 566.55L615.153 565.703V564.291L613.176 562.597L610.353 560.62L608.376 556.667L606.682 554.125L604.141 551.867L602.446 549.325Z" fill="#E8F1F5"/>
<path d="M635.953 620.083L632 622.342L633.129 623.471H635.106L635.953 624.601L637.93 625.73H639.342L643.577 626.86L644.989 627.707V630.53L647.813 630.248L649.225 627.707V624.601V620.083V615L644.424 615.847L635.953 620.083Z" fill="#7D7E82" fill-opacity="0.7"/>
<path d="M521.124 504.428L523.383 502.169L527.054 496.804L530.16 494.545V492.569C529.877 491.251 529.313 488.446 529.313 487.768C529.313 487.091 530.442 483.344 531.007 481.556H539.76L545.125 484.945L547.949 489.463V493.698L545.125 496.804L543.149 497.934L541.737 499.91L543.996 506.122V510.358L551.338 511.205L553.314 508.664L557.55 506.969C559.526 508.664 563.593 512.052 564.044 512.052C564.496 512.052 565.174 514.876 565.456 516.288L557.55 519.111L556.42 521.37L554.161 523.347L553.314 526.171L555.856 528.43L559.809 531.253V536.054L555.856 541.983L549.361 542.548L543.996 542.266L538.349 543.113H530.16L527.901 541.983L523.101 538.313C522.818 537.654 522.253 536.28 522.253 536.054C522.253 535.828 522.442 533.701 522.536 532.665L523.665 530.406L524.795 528.43V526.171L524.512 525.606L523.665 521.935L523.101 519.111L519.43 516.288L518.018 514.311L514.629 513.746L513.5 512.052L515.194 510.358L516.888 508.664L518.583 506.969L521.124 504.428Z" fill="#C7D1D3"/>
<path d="M546.819 635.73H550.773L562.914 634.601L575.621 633.472H582.116L584.939 640.531L589.175 641.66C590.963 640.907 594.371 639.175 593.693 638.272C593.015 637.368 592.658 636.201 592.563 635.73L596.799 627.824L599.058 625.848L602.729 623.024L604.705 619.353H610.917H617.412L613.741 626.695L617.412 628.954L624.471 627.824L630.966 630.648L624.471 638.272L612.047 645.049L592.563 641.66L575.621 645.049L567.432 648.437L562.067 652.108H549.643L538.066 649.567L522.818 645.049L508.982 642.225L500.511 638.272L493.451 633.472L486.674 630.648L483.568 625.848L488.651 620.482L505.311 624.436H514.347L516.888 633.472L526.771 634.601L531.007 630.648L529.03 621.894V615.682L526.206 608.905L523.665 605.517L527.901 606.082L532.136 608.058L537.219 609.47H542.301L545.125 610.317L543.713 614.27L542.301 620.482L541.454 624.436L542.301 628.954L543.713 632.342L546.819 635.73Z" fill="#B0BBC3" fill-opacity="0.4"/>
<path d="M626.448 628.389L631.531 624.718L635.766 640.531L629.554 641.943L615.153 648.437L601.317 649.567H591.999L587.199 647.308L584.657 643.919L588.893 641.943L596.517 640.531L605.27 636.578L614.024 634.036L621.365 631.213L626.448 628.389Z" fill="#2E3237" fill-opacity="0.7"/>
<path d="M491.757 522.5C487.898 523.724 479.954 526.171 479.05 526.171L477.921 547.349L504.464 559.491L559.808 569.938L557.267 589.422V602.693L569.974 610.882L577.598 606.646L579.292 593.657H587.481L589.74 586.598L575.339 581.798L582.398 572.762L587.481 557.514L562.632 550.455L555.573 546.219L549.643 543.113L544.278 541.701L527.618 543.113L523.383 538.03L519.994 538.877L515.476 543.113L496.275 545.09L488.086 543.113L486.11 536.619L488.933 532.665L491.757 527.583V522.5Z" fill="#EAF1F3" fill-opacity="0.5"/>
<path d="M689.127 436.095C690.417 441.231 691.716 442.963 693.645 446.825L691.386 447.389C689.551 446.648 688.521 446.246 686.586 446.825L684.327 445.695L681.221 444.848V442.024L683.198 438.636L684.327 436.095C686.746 435.293 686.303 434.109 685.174 431.859L684.327 431.012L682.35 428.753C680.59 428.34 679.998 428.491 679.809 429.6C676.163 430.228 675.334 430.308 673.879 430.447V434.4L671.903 438.636L669.361 440.048H667.102L663.714 436.095L662.584 433.836L658.067 432.424L653.831 431.012L651.29 429.6C651.29 429.6 648.184 431.859 645.925 430.447C643.666 429.035 645.36 427.623 645.36 427.623C646.719 426.112 645.755 425.534 643.948 424.517C643.203 420.952 642.073 419.393 639.148 417.176C639.358 414.997 638.566 414.444 636.324 414.07C637.443 413.037 636.788 412.572 635.759 411.528C637.952 408.583 637.173 407.124 636.324 404.469C635.518 403.446 635.576 402.707 635.759 401.363C635.759 401.363 635.195 401.363 634.065 400.516C632.936 399.669 631.806 398.539 631.806 398.539L630.677 397.127H628.418L627.006 400.516H623.053L619.382 403.34L619.664 405.881L623.053 407.293L625.029 410.116L627.571 412.093L628.982 414.917L631.241 418.305V422.541L629.547 425.364L623.053 429.6L620.794 431.012V434.4L623.053 436.095L623.9 442.024L626.441 448.236L631.241 453.884L633.5 455.013L635.759 457.272L637.736 455.86L644.513 455.013L651.29 453.884C653.933 452.308 655.5 451.603 658.631 451.06L662.584 451.625L668.514 455.013L671.903 457.272L676.703 458.684L681.221 460.096L683.198 460.943V464.049L678.962 468.002L673.879 471.956L670.491 473.367C670.115 476.444 670.129 478.131 671.056 480.991C670.717 484.041 670.594 485.65 671.056 487.486L666.538 490.027L665.408 485.509C665.452 483.312 665.041 482.348 663.714 480.991C663.085 478.751 662.029 478.489 660.043 478.168C656.035 478.572 654.019 478.379 651.29 476.474L649.313 474.497V464.049L650.16 462.073L649.313 460.943L648.184 460.096L645.925 462.073L642.254 465.179L635.759 468.002L634.065 471.956L629.547 474.497L626.441 473.367L623.9 465.179L622.488 460.096L619.382 455.86L618.535 457.272L614.581 460.096L609.216 462.92L601.875 465.179L597.357 464.049L589.451 460.943C587.474 459.908 583.464 457.724 583.238 457.272C583.012 456.821 576.744 451.06 573.638 448.236L570.814 447.389V443.719L572.508 437.506L575.897 432.424L577.026 429.6V427.623L575.897 425.364L575.05 423.67H573.638L572.508 424.517L570.814 428.188L568.273 434.4L564.602 439.201L559.519 443.719L555.566 446.825L552.178 449.084L549.354 449.648V451.06H552.178L561.496 451.625L564.602 455.86L565.449 460.943L568.273 464.049L569.402 471.956V478.168L564.602 479.297L559.519 480.991L552.742 483.533L547.942 487.486L545.683 492.004L542.859 497.934V507.534L547.942 511.77L556.413 510.923L560.931 506.687L569.402 502.734L572.508 505.558L573.638 515.441L569.402 517.7L564.602 520.806L558.672 517.7L555.001 520.806L552.178 525.041L553.307 529.559L558.672 531.253V534.924L555.001 540.289L547.942 541.983L542.859 540.289L538.059 541.983H532.412L526.2 540.289L523.658 533.23L526.2 529.559L534.106 528.712L542.859 533.23L535.518 523.912L534.106 515.441L532.412 507.534L528.458 505.558L525.07 503.863V498.781L535.518 483.533H539.753V478.732C536.896 477.807 535.404 477.129 534.106 473.932C534.966 472.598 534.995 471.74 534.106 469.979C536.917 467.915 538.091 467.322 539.753 466.873V462.92C539.921 462.16 540.422 461.736 534.106 460.943C533.123 459.994 532.568 458.597 534.106 455.86L529.87 453.037C529.45 449.973 527.631 448.759 523.658 446.825C519.852 445.056 518.461 442.473 515.752 438.354L512.646 423.67V418.305L523.658 410.964L528.458 408.422L529.87 401.928V395.716H532.412L538.059 398.539L542.859 401.928H547.942L558.672 400.516L563.19 403.34L570.814 408.422L573.638 410.964L579.85 408.422H585.215L588.886 405.881V401.928L585.215 398.539L582.674 394.304L585.215 389.503H593.121L595.663 394.304L601.875 400.516H606.957L613.17 395.716L619.664 394.304C619.664 394.304 626.441 392.892 629.547 394.304C632.653 395.716 637.001 393.811 640.277 394.304C643.553 394.796 646.251 393.035 648.748 392.045C652.006 391.549 653.355 390.942 655.243 389.503C656.813 387.525 657.44 386.169 657.219 382.444C659.805 383.988 660.203 383.444 660.89 382.444C665.276 382.207 666.2 382.824 666.255 384.703C665.111 387.57 664.229 389.178 666.255 392.045C666.802 393.935 666.571 395.196 670.773 395.716C671.284 397.94 671.765 398.82 673.597 398.539C671.466 400.196 670.527 401.042 670.773 401.928C671.701 404.813 672.234 406.404 673.597 408.422C682.912 420.924 686.65 422.771 696.187 429.882C689.207 432.185 686.365 435.242 689.127 436.095Z" fill="#15181A"/>
<path d="M619.382 380.75L626.441 382.444H628.418L634.065 380.75L636.324 377.079L637.736 374.538V369.737L635.759 365.784L631.806 362.113L625.029 356.466L620.794 354.772H608.087L603.569 356.466L601.875 358.16L597.922 362.961V369.737L601.028 374.538L604.416 377.926L613.17 380.75H619.382Z" fill="#15181A"/>
<path d="M545.118 391.762H539.753H538.059H536.365L534.106 388.939L532.412 386.962L533.259 384.421L534.671 382.444L537.212 381.032L543.989 380.75L549.919 381.032L551.048 382.444V386.962L549.072 388.939L547.942 391.762H545.118Z" fill="#15181A"/>
<path d="M521.399 393.457L528.458 392.609L529.87 393.457L528.458 397.127L526.764 400.516L523.658 401.928L519.423 403.34L513.775 401.363V398.539L512.081 392.609V388.939L515.752 390.915L517.164 393.457H521.399Z" fill="#15181A"/>
<path d="M487.515 400.516H492.88L494.292 401.363L492.88 403.34V407.293L490.338 410.116L487.515 410.964L484.973 410.116L478.761 407.293L470.855 408.422L466.337 410.116L456.454 416.046L449.959 421.411L442.9 429.6L436.97 434.4L432.17 445.695L431.041 453.884L439.512 449.084L442.9 445.695L445.442 440.33L449.959 434.4L452.501 428.188L463.231 421.411L466.337 419.435C467.184 419.058 469.274 418.079 470.855 417.176C472.832 416.046 475.938 417.176 477.067 416.046C477.971 415.143 481.961 414.917 483.844 414.917L489.491 414.352L492.88 411.528L495.986 407.293V401.363L499.374 397.127C500.88 395.904 503.949 393.287 504.175 392.609C504.457 391.762 506.716 385.833 508.41 377.926C509.766 371.601 508.975 371.902 508.41 372.844C505.304 374.255 498.923 377.079 498.245 377.079C497.567 377.079 495.327 379.526 494.292 380.75L490.338 385.833L484.973 390.915L481.303 396.563L481.867 400.516H487.515Z" fill="#15181A"/>
<path d="M650.16 517.7C650.16 516.796 652.607 512.805 653.831 510.923L658.067 507.534H653.266L643.948 509.793L645.925 503.863L656.937 498.781L663.149 497.087C666.726 499.91 673.823 505.558 673.597 505.558C673.315 505.558 669.361 507.534 662.584 509.793C655.808 512.052 658.631 520.806 660.043 522.218C661.173 523.347 662.208 525.888 662.584 527.018C663.526 533.606 665.408 547.066 665.408 548.196C665.408 549.325 657.69 553.184 653.831 554.973L649.313 550.455L653.831 540.289C653.831 537.936 653.718 533.004 653.266 532.101C652.814 531.197 651.76 526.265 651.29 523.912C650.913 522.218 650.16 518.603 650.16 517.7Z" fill="#15181A"/>
<path d="M718.523 520.406C718.954 517.064 719.259 515.238 720.5 512.5C721.604 512.761 722.75 506.872 723 507.534V512.5L722 518.5L720.753 525.041L719.5 532.5L717.5 539L712.282 557.514L708.328 567.114L700.704 568.526H696.187L703.528 557.514L709.74 545.09L714.258 532.101L718.776 525.041C719.796 522.093 719.05 523.232 718.523 520.406Z" fill="#15181A"/>
<path d="M681.221 541.983L689.127 532.101L691.386 545.09L689.127 550.455L682.35 557.514H678.962L673.597 553.561L673.879 548.196L681.221 541.983Z" fill="#15181A"/>
<path d="M595.38 541.983L591.709 540.289V541.983V544.525L589.451 553.561V550.455L581.827 544.525L573.638 541.983H572.508C569.873 542.642 564.432 544.073 563.755 544.525C563.077 544.977 559.143 546.972 557.26 547.913L560.931 550.455L564.602 553.561L572.508 554.973L577.309 557.514L581.827 561.749L580.697 567.114L577.309 568.526L572.508 576.433V582.362L575.05 587.445H580.697H585.78V590.551L584.368 595.634L591.709 594.504L600.745 595.634L611.475 591.681L615.711 588.575C616.935 587.069 619.664 583.718 620.794 582.362C622.205 580.668 620.794 576.15 620.794 575.021C620.794 574.117 621.923 570.315 622.488 568.526H619.382L611.475 565.138L604.416 560.338L600.745 557.514L599.051 553.561V546.784L595.38 541.983Z" fill="#15181A"/>
<path d="M512.646 457.272C513.963 456.802 516.712 455.86 517.164 455.86L517.728 457.272V461.508L516.317 464.614L512.646 466.026L509.54 465.179L506.151 462.92L506.716 460.378L512.646 457.272Z" fill="#15181A"/>
<path d="M457.866 432.706L460.972 434.683L462.384 435.247L461.819 437.224L460.407 439.483L458.713 441.46L455.042 442.589L453.348 440.33V438.636C453.724 437.601 454.534 435.473 454.76 435.247L456.172 433.836L457.866 432.706Z" fill="#15181A"/>
<path d="M497.962 439.483C496.739 439.765 494.179 440.33 493.727 440.33H492.315L491.186 444.848V449.648L489.491 453.037L486.668 455.86V457.272L487.515 458.967C487.741 459.418 488.55 459.155 488.927 458.967L489.491 457.272V455.86H490.339L491.186 457.272L493.727 458.967L495.421 460.943L495.986 474.497V480.427L498.245 481.839L500.786 483.533L503.892 484.945L507.563 482.968L511.799 480.991L516.317 477.603L517.164 476.474L519.14 475.909V478.732L520.27 479.862L519.987 493.133L517.164 499.346L515.752 507.534L510.669 512.617L505.304 517.135L499.092 523.629L484.973 529.842L483.562 538.313L484.409 542.831L486.385 545.09L488.362 547.913L492.597 549.325L494.574 551.019H497.398L500.786 552.996H538.624L543.707 554.408L546.813 557.514L547.377 561.749L549.072 564.008L553.025 564.573L559.802 563.161L569.12 564.008L574.485 566.832L572.791 569.938L565.731 576.715L562.343 582.362L561.778 586.033L562.908 588.575C563.472 589.61 564.715 591.737 565.167 591.963C565.618 592.189 565.92 592.622 566.014 592.81V597.046C566.014 597.498 565.449 597.799 565.167 597.893L562.343 599.022H561.214L559.802 597.046L558.672 596.481C558.484 596.952 558.107 597.949 558.107 598.175C558.107 598.401 558.296 599.211 558.39 599.587L561.214 601.846L564.602 606.646L566.579 607.776L569.12 608.905L573.638 608.623L577.591 606.082L579.568 602.411L578.438 599.587L577.591 596.199L576.744 593.375H579.003L582.109 595.069L582.956 597.046L585.497 597.893L586.909 599.022L593.121 599.587L599.334 601.281L607.805 600.999H614.017L615.711 604.67L609.781 611.447L605.546 615.117L600.181 621.33L595.098 619.635L593.121 614.27L591.992 609.47L591.709 606.082L586.909 604.67L582.109 606.082L581.544 612.576L583.803 616.812L585.78 624.436L580.697 630.648L577.591 631.495L555.566 630.648L548.789 628.954L543.424 622.741L544.271 620.483L546.813 617.659L547.66 615.682L548.789 613.988V611.447L547.66 609.47L542.859 607.493H532.412L528.458 605.234L521.399 604.105L526.2 610.6C526.953 613.894 528.458 620.708 528.458 621.612C528.458 622.516 529.776 628.577 530.435 631.495H521.399L514.905 626.412L506.434 622.741L497.963 626.412L487.232 627.824L466.619 613.988L464.643 607.493L458.148 604.105C456.736 601.658 452.727 595.973 447.983 592.81C442.053 588.857 438.665 584.621 435.276 580.951C432.565 578.014 421.911 559.396 416.922 550.455L413.534 534.924C412.687 531.253 411.501 519.055 413.534 499.628C415.567 480.201 420.593 471.391 422.852 469.414V489.745V497.087L426.523 503.863C427.276 505.087 428.895 507.534 429.346 507.534C429.911 507.534 431.323 510.076 431.605 510.358C431.831 510.584 432.264 512.335 432.453 513.182H437.535H439.512L440.641 510.358L439.512 504.711C439.229 502.357 438.665 497.538 438.665 497.087V492.851V490.592L437.535 488.898L435.276 486.357V481.839V477.885L436.97 474.215V470.544L441.771 469.414L443.465 467.155V453.319H445.159L446.289 450.495L450.807 449.648L453.913 449.084L455.042 447.389L456.454 449.084L453.913 451.625L453.348 453.884L456.172 454.731C456.831 454.072 458.261 452.698 458.713 452.472C459.165 452.246 460.972 451.437 461.819 451.06V447.954L463.513 445.413L464.925 442.024L466.902 438.636L469.161 437.224L474.808 435.812L493.727 435.476L500.504 435.812L504.457 436.377L510.669 439.201L514.905 440.33V444.848L513.493 447.389H510.669L506.151 443.719L501.351 442.589L497.962 439.483Z" fill="#15181A"/>
<path d="M323.182 532.665C318.967 507.575 314.499 498.512 305.675 484.38L301.722 497.934L299.463 544.242L321.488 609.47L342.383 650.414L410.434 708.864L468.038 733.431L550.208 742.749L621.93 722.701L689.699 682.322L711.724 653.237L704.665 641.378L689.699 655.779L675.863 671.309C668.89 677.831 664.52 681.237 656.379 687.122C647.43 692.732 641.536 695.517 630.119 700.111C616.046 706.275 607.096 709.186 589.74 713.665C577.669 716.108 570.319 716.848 556.702 717.618C538.32 717.674 527.768 716.878 508.417 713.665C491.366 709.437 481.681 706.555 464.085 700.111C449.07 694.268 440.65 691.231 425.682 680.063C414.342 669.287 408.47 663.429 391.233 650.414C383.989 644 379.575 639.349 370.903 628.671C356.439 614.82 350.048 604.411 341.818 580.951C333.011 563.098 328.977 552.494 323.182 532.665Z" fill="#117BC8"/>
<path d="M750.374 510.64C750.374 634.289 650.137 734.526 526.489 734.526C402.84 734.526 302.604 634.289 302.604 510.64C302.604 386.992 402.84 286.755 526.489 286.755C650.137 286.755 750.374 386.992 750.374 510.64Z" stroke="black" stroke-width="30"/>
<path d="M694.217 588.01L702 574L705.511 570.221L707.206 564L711.724 548.478V532.948L707.206 521.653L697.04 519.959L679.533 544.807L665.415 571.632L639.154 591.116L607.529 600.999L602.729 617.659L622.212 631.495L654.402 626.695L681.792 603.54L694.217 588.01Z" fill="white" fill-opacity="0.7"/>
<path d="M1044.52 453.118C1043.44 442.232 1038.81 433.776 1030.62 427.749C1022.43 421.721 1011.32 418.707 997.29 418.707C987.754 418.707 979.702 420.057 973.135 422.756C966.568 425.365 961.53 429.008 958.021 433.686C954.603 438.364 952.893 443.672 952.893 449.609C952.714 454.557 953.748 458.875 955.997 462.564C958.336 466.252 961.53 469.446 965.578 472.145C969.626 474.754 974.304 477.048 979.612 479.027C984.92 480.916 990.588 482.536 996.615 483.885L1021.44 489.822C1033.5 492.521 1044.56 496.12 1054.64 500.618C1064.72 505.116 1073.44 510.649 1080.82 517.216C1088.2 523.783 1093.91 531.52 1097.96 540.426C1102.1 549.332 1104.21 559.543 1104.3 571.058C1104.21 587.971 1099.89 602.635 1091.35 615.05C1082.89 627.375 1070.65 636.955 1054.64 643.793C1038.72 650.54 1019.51 653.913 997.02 653.913C974.709 653.913 955.277 650.495 938.724 643.658C922.261 636.821 909.397 626.7 900.131 613.295C890.955 599.801 886.142 583.113 885.692 563.232H942.233C942.863 572.498 945.517 580.234 950.195 586.442C954.963 592.559 961.305 597.192 969.222 600.341C977.228 603.4 986.269 604.929 996.345 604.929C1006.24 604.929 1014.83 603.49 1022.12 600.611C1029.5 597.732 1035.21 593.729 1039.26 588.601C1043.31 583.473 1045.33 577.58 1045.33 570.923C1045.33 564.716 1043.49 559.498 1039.8 555.27C1036.2 551.042 1030.89 547.443 1023.87 544.474C1016.95 541.506 1008.45 538.807 998.369 536.378L968.277 528.821C944.977 523.153 926.58 514.292 913.085 502.237C899.591 490.182 892.889 473.944 892.979 453.523C892.889 436.79 897.342 422.171 906.338 409.666C915.424 397.161 927.884 387.401 943.717 380.384C959.551 373.366 977.543 369.858 997.695 369.858C1018.21 369.858 1036.11 373.366 1051.4 380.384C1066.79 387.401 1078.75 397.161 1087.3 409.666C1095.84 422.171 1100.25 436.655 1100.52 453.118H1044.52ZM1252.77 442.727V485.909H1127.95V442.727H1252.77ZM1156.29 393.068H1213.77V586.307C1213.77 591.615 1214.58 595.753 1216.2 598.722C1217.82 601.6 1220.07 603.625 1222.95 604.794C1225.92 605.964 1229.34 606.548 1233.2 606.548C1235.9 606.548 1238.6 606.323 1241.3 605.874C1244 605.334 1246.07 604.929 1247.51 604.659L1256.55 647.436C1253.67 648.336 1249.62 649.37 1244.4 650.54C1239.19 651.799 1232.84 652.564 1225.38 652.834C1211.52 653.374 1199.38 651.529 1188.94 647.301C1178.6 643.073 1170.55 636.506 1164.79 627.599C1159.03 618.693 1156.2 607.448 1156.29 593.864V393.068ZM1349.32 653.913C1336.1 653.913 1324.31 651.619 1313.97 647.031C1303.62 642.353 1295.44 635.471 1289.41 626.385C1283.47 617.209 1280.5 605.784 1280.5 592.109C1280.5 580.594 1282.62 570.923 1286.84 563.097C1291.07 555.27 1296.83 548.973 1304.12 544.205C1311.4 539.437 1319.68 535.838 1328.95 533.409C1338.3 530.98 1348.11 529.271 1358.36 528.281C1370.42 527.022 1380.13 525.852 1387.51 524.773C1394.89 523.603 1400.24 521.894 1403.57 519.645C1406.9 517.396 1408.56 514.067 1408.56 509.659V508.849C1408.56 500.303 1405.86 493.691 1400.47 489.013C1395.16 484.335 1387.6 481.996 1377.8 481.996C1367.45 481.996 1359.22 484.29 1353.1 488.878C1346.98 493.376 1342.94 499.044 1340.96 505.881L1287.79 501.562C1290.49 488.968 1295.8 478.082 1303.71 468.906C1311.63 459.64 1321.84 452.533 1334.34 447.585C1346.94 442.547 1361.51 440.028 1378.07 440.028C1389.58 440.028 1400.6 441.378 1411.13 444.077C1421.74 446.776 1431.14 450.959 1439.33 456.626C1447.61 462.294 1454.13 469.581 1458.9 478.487C1463.66 487.303 1466.05 497.874 1466.05 510.199V650H1411.53V621.257H1409.91C1406.58 627.734 1402.13 633.447 1396.55 638.395C1390.98 643.253 1384.27 647.076 1376.45 649.865C1368.62 652.564 1359.58 653.913 1349.32 653.913ZM1365.79 614.24C1374.24 614.24 1381.71 612.576 1388.19 609.247C1394.66 605.829 1399.75 601.241 1403.44 595.483C1407.12 589.725 1408.97 583.203 1408.97 575.916V553.92C1407.17 555.09 1404.69 556.17 1401.55 557.159C1398.49 558.059 1395.02 558.913 1391.16 559.723C1387.29 560.443 1383.42 561.117 1379.55 561.747C1375.68 562.287 1372.17 562.782 1369.02 563.232C1362.28 564.221 1356.38 565.795 1351.35 567.955C1346.31 570.114 1342.4 573.037 1339.61 576.726C1336.82 580.324 1335.42 584.822 1335.42 590.22C1335.42 598.047 1338.26 604.029 1343.93 608.168C1349.68 612.216 1356.97 614.24 1365.79 614.24ZM1510.65 650V442.727H1566.38V478.892H1568.54C1572.32 466.027 1578.66 456.312 1587.56 449.744C1596.47 443.087 1606.73 439.759 1618.33 439.759C1621.21 439.759 1624.31 439.938 1627.64 440.298C1630.97 440.658 1633.9 441.153 1636.41 441.783V492.791C1633.72 491.982 1629.98 491.262 1625.21 490.632C1620.45 490.002 1616.08 489.688 1612.12 489.688C1603.67 489.688 1596.11 491.532 1589.45 495.22C1582.89 498.819 1577.67 503.857 1573.8 510.334C1570.02 516.811 1568.13 524.278 1568.13 532.734V650H1510.65ZM1749.87 732.045C1731.25 732.045 1715.28 729.482 1701.96 724.354C1688.74 719.316 1678.21 712.434 1670.39 703.707C1662.56 694.981 1657.48 685.175 1655.14 674.29L1708.31 667.138C1709.92 671.276 1712.49 675.144 1716 678.743C1719.51 682.341 1724.14 685.22 1729.9 687.379C1735.74 689.628 1742.85 690.753 1751.22 690.753C1763.72 690.753 1774.02 687.694 1782.12 681.577C1790.31 675.549 1794.4 665.429 1794.4 651.214V613.295H1791.97C1789.45 619.053 1785.67 624.496 1780.63 629.624C1775.6 634.751 1769.12 638.935 1761.2 642.173C1753.29 645.412 1743.84 647.031 1732.87 647.031C1717.3 647.031 1703.13 643.433 1690.36 636.236C1677.67 628.949 1667.55 617.839 1660 602.905C1652.53 587.881 1648.8 568.899 1648.8 545.959C1648.8 522.479 1652.62 502.867 1660.27 487.124C1667.91 471.38 1678.08 459.595 1690.76 451.768C1703.54 443.942 1717.53 440.028 1732.73 440.028C1744.34 440.028 1754.05 442.008 1761.88 445.966C1769.7 449.834 1776 454.692 1780.77 460.54C1785.63 466.297 1789.36 471.965 1791.97 477.543H1794.13V442.727H1851.21V652.024C1851.21 669.657 1846.89 684.411 1838.26 696.286C1829.62 708.161 1817.65 717.067 1802.36 723.004C1787.16 729.032 1769.66 732.045 1749.87 732.045ZM1751.08 603.849C1760.35 603.849 1768.18 601.555 1774.56 596.967C1781.04 592.289 1785.99 585.632 1789.41 576.996C1792.91 568.269 1794.67 557.834 1794.67 545.689C1794.67 533.544 1792.96 523.018 1789.54 514.112C1786.12 505.116 1781.17 498.144 1774.7 493.196C1768.22 488.248 1760.35 485.774 1751.08 485.774C1741.64 485.774 1733.67 488.338 1727.2 493.466C1720.72 498.504 1715.82 505.521 1712.49 514.517C1709.16 523.513 1707.5 533.904 1707.5 545.689C1707.5 557.654 1709.16 568 1712.49 576.726C1715.91 585.362 1720.81 592.064 1727.2 596.832C1733.67 601.51 1741.64 603.849 1751.08 603.849ZM1956.06 653.913C1942.84 653.913 1931.05 651.619 1920.71 647.031C1910.36 642.353 1902.17 635.471 1896.15 626.385C1890.21 617.209 1887.24 605.784 1887.24 592.109C1887.24 580.594 1889.35 570.923 1893.58 563.097C1897.81 555.27 1903.57 548.973 1910.86 544.205C1918.14 539.437 1926.42 535.838 1935.68 533.409C1945.04 530.98 1954.85 529.271 1965.1 528.281C1977.16 527.022 1986.87 525.852 1994.25 524.773C2001.63 523.603 2006.98 521.894 2010.31 519.645C2013.64 517.396 2015.3 514.067 2015.3 509.659V508.849C2015.3 500.303 2012.6 493.691 2007.2 489.013C2001.9 484.335 1994.34 481.996 1984.53 481.996C1974.19 481.996 1965.96 484.29 1959.84 488.878C1953.72 493.376 1949.67 499.044 1947.69 505.881L1894.53 501.562C1897.23 488.968 1902.53 478.082 1910.45 468.906C1918.37 459.64 1928.58 452.533 1941.08 447.585C1953.68 442.547 1968.25 440.028 1984.8 440.028C1996.32 440.028 2007.34 441.378 2017.87 444.077C2028.48 446.776 2037.88 450.959 2046.07 456.626C2054.34 462.294 2060.87 469.581 2065.63 478.487C2070.4 487.303 2072.79 497.874 2072.79 510.199V650H2018.27V621.257H2016.65C2013.32 627.734 2008.87 633.447 2003.29 638.395C1997.71 643.253 1991.01 647.076 1983.18 649.865C1975.36 652.564 1966.32 653.913 1956.06 653.913ZM1972.52 614.24C1980.98 614.24 1988.45 612.576 1994.92 609.247C2001.4 605.829 2006.48 601.241 2010.17 595.483C2013.86 589.725 2015.71 583.203 2015.71 575.916V553.92C2013.91 555.09 2011.43 556.17 2008.28 557.159C2005.23 558.059 2001.76 558.913 1997.89 559.723C1994.03 560.443 1990.16 561.117 1986.29 561.747C1982.42 562.287 1978.91 562.782 1975.76 563.232C1969.02 564.221 1963.12 565.795 1958.09 567.955C1953.05 570.114 1949.13 573.037 1946.35 576.726C1943.56 580.324 1942.16 584.822 1942.16 590.22C1942.16 598.047 1945 604.029 1950.66 608.168C1956.42 612.216 1963.71 614.24 1972.52 614.24ZM2289.84 501.832L2237.22 505.071C2236.32 500.573 2234.38 496.525 2231.41 492.926C2228.44 489.238 2224.53 486.314 2219.67 484.155C2214.9 481.906 2209.19 480.781 2202.53 480.781C2193.63 480.781 2186.12 482.67 2180 486.449C2173.88 490.137 2170.82 495.085 2170.82 501.293C2170.82 506.241 2172.8 510.424 2176.76 513.842C2180.72 517.261 2187.51 520.005 2197.14 522.074L2234.65 529.631C2254.8 533.769 2269.83 540.426 2279.72 549.602C2289.62 558.778 2294.57 570.833 2294.57 585.767C2294.57 599.351 2290.56 611.271 2282.56 621.527C2274.64 631.783 2263.75 639.789 2249.9 645.547C2236.14 651.214 2220.26 654.048 2202.26 654.048C2174.83 654.048 2152.97 648.336 2136.68 636.911C2120.49 625.395 2111 609.742 2108.21 589.95L2164.75 586.982C2166.46 595.348 2170.6 601.735 2177.17 606.143C2183.73 610.462 2192.14 612.621 2202.4 612.621C2212.48 612.621 2220.57 610.687 2226.69 606.818C2232.9 602.86 2236.05 597.777 2236.14 591.57C2236.05 586.352 2233.84 582.079 2229.52 578.75C2225.21 575.331 2218.55 572.723 2209.55 570.923L2173.66 563.771C2153.42 559.723 2138.35 552.706 2128.45 542.72C2118.65 532.734 2113.74 520.005 2113.74 504.531C2113.74 491.217 2117.34 479.747 2124.54 470.121C2131.82 460.495 2142.04 453.073 2155.17 447.855C2168.39 442.637 2183.87 440.028 2201.59 440.028C2227.77 440.028 2248.37 445.561 2263.39 456.626C2278.51 467.692 2287.32 482.76 2289.84 501.832ZM2425.22 654.048C2403.9 654.048 2385.55 649.73 2370.17 641.094C2354.87 632.367 2343.09 620.043 2334.81 604.119C2326.54 588.106 2322.4 569.169 2322.4 547.308C2322.4 525.987 2326.54 507.275 2334.81 491.172C2343.09 475.069 2354.74 462.519 2369.76 453.523C2384.88 444.527 2402.6 440.028 2422.93 440.028C2436.6 440.028 2449.33 442.232 2461.12 446.641C2472.99 450.959 2483.34 457.481 2492.16 466.207C2501.06 474.934 2507.99 485.909 2512.94 499.134C2517.89 512.268 2520.36 527.652 2520.36 545.284V561.072H2345.34V525.447H2466.25C2466.25 517.171 2464.45 509.839 2460.85 503.452C2457.25 497.064 2452.26 492.071 2445.87 488.473C2439.57 484.785 2432.24 482.94 2423.88 482.94C2415.15 482.94 2407.41 484.964 2400.67 489.013C2394.01 492.971 2388.79 498.324 2385.01 505.071C2381.23 511.728 2379.3 519.15 2379.21 527.337V561.207C2379.21 571.463 2381.1 580.324 2384.88 587.791C2388.75 595.258 2394.19 601.016 2401.2 605.064C2408.22 609.112 2416.54 611.136 2426.17 611.136C2432.56 611.136 2438.4 610.237 2443.71 608.438C2449.02 606.638 2453.56 603.939 2457.34 600.341C2461.12 596.742 2464 592.334 2465.98 587.116L2519.15 590.625C2516.45 603.4 2510.91 614.555 2502.55 624.091C2494.27 633.537 2483.57 640.914 2470.43 646.222C2457.39 651.439 2442.32 654.048 2425.22 654.048ZM2557.87 650V442.727H2613.61V478.892H2615.76C2619.54 466.027 2625.89 456.312 2634.79 449.744C2643.7 443.087 2653.95 439.759 2665.56 439.759C2668.44 439.759 2671.54 439.938 2674.87 440.298C2678.2 440.658 2681.12 441.153 2683.64 441.783V492.791C2680.94 491.982 2677.21 491.262 2672.44 490.632C2667.67 490.002 2663.31 489.688 2659.35 489.688C2650.89 489.688 2643.34 491.532 2636.68 495.22C2630.11 498.819 2624.9 503.857 2621.03 510.334C2617.25 516.811 2615.36 524.278 2615.36 532.734V650H2557.87Z" fill="black"/>
</svg>
